# xmcd
#
# Track frame offsets:
#	150
#	21981
#	44853
#	97249
#	121682
#	155794
#	179147
#
# Disc length: 2810 seconds
#
# Revision: 1
# Processed by: cddbd v1.5.2PL0 Copyright (c) Steve Scherf et al.
# Submitted via: audiograbber 1.83.01
#
DISCID=680af807
DTITLE=Grateful Dead - 73-05-20A Campus Stadium, Santa Barbara CA
DYEAR=1900
DGENRE=
TTITLE0=Big Railroad Blues
TTITLE1=Greatest Story Ever told
TTITLE2=Here Comes Sunshine
TTITLE3=Big River
TTITLE4=Loser
TTITLE5=El Paso
TTITLE6=Casey Jones
EXTD=
EXTT0=
EXTT1=
EXTT2=
EXTT3=
EXTT4=
EXTT5=
EXTT6=
PLAYORDER=
